<mxfile host="app.diagrams.net" modified="2020-12-27T15:51:27.956Z" agent="5.0 (Windows)" etag="9qSIioModKlnEdi7tD4p" version="14.1.2" type="github">
  <diagram id="cJAWYM42isbmqPtvwPU_" name="Page-1">
    <mxGraphModel dx="1037" dy="586" grid="1" gridSize="10" guides="1" tooltips="1" connect="1" arrows="1" fold="1" page="1" pageScale="1" pageWidth="850" pageHeight="1100" math="0" shadow="0">
      <root>
        <mxCell id="0" />
        <mxCell id="1" parent="0" />
        <mxCell id="GiAE5ClyJ_Z83PEIx40X-1" value="" style="shape=ellipse;html=1;fillColor=#000000;strokeWidth=2;verticalLabelPosition=bottom;verticalAlignment=top;perimeter=ellipsePerimeter;" vertex="1" parent="1">
          <mxGeometry x="90" y="130" width="40" height="40" as="geometry" />
        </mxCell>
        <mxCell id="GiAE5ClyJ_Z83PEIx40X-2" value="" style="html=1;shape=mxgraph.sysml.actFinal;strokeWidth=2;verticalLabelPosition=bottom;verticalAlignment=top;" vertex="1" parent="1">
          <mxGeometry x="100" y="680" width="40" height="40" as="geometry" />
        </mxCell>
        <mxCell id="GiAE5ClyJ_Z83PEIx40X-3" value="login" style="shape=ext;rounded=1;html=1;whiteSpace=wrap;strokeWidth=3;" vertex="1" parent="1">
          <mxGeometry x="250" y="110" width="120" height="80" as="geometry" />
        </mxCell>
        <mxCell id="GiAE5ClyJ_Z83PEIx40X-4" value="" style="endArrow=classic;html=1;exitX=1;exitY=0.5;exitDx=0;exitDy=0;entryX=0;entryY=0.5;entryDx=0;entryDy=0;" edge="1" parent="1" source="GiAE5ClyJ_Z83PEIx40X-1" target="GiAE5ClyJ_Z83PEIx40X-3">
          <mxGeometry width="50" height="50" relative="1" as="geometry">
            <mxPoint x="400" y="250" as="sourcePoint" />
            <mxPoint x="450" y="200" as="targetPoint" />
          </mxGeometry>
        </mxCell>
        <mxCell id="GiAE5ClyJ_Z83PEIx40X-5" value="" style="endArrow=classic;html=1;exitX=0.5;exitY=1;exitDx=0;exitDy=0;" edge="1" parent="1" source="GiAE5ClyJ_Z83PEIx40X-3">
          <mxGeometry width="50" height="50" relative="1" as="geometry">
            <mxPoint x="400" y="250" as="sourcePoint" />
            <mxPoint x="310" y="250" as="targetPoint" />
          </mxGeometry>
        </mxCell>
        <mxCell id="GiAE5ClyJ_Z83PEIx40X-6" value="check Notification" style="shape=ext;rounded=1;html=1;whiteSpace=wrap;strokeWidth=3;" vertex="1" parent="1">
          <mxGeometry x="250" y="250" width="120" height="80" as="geometry" />
        </mxCell>
        <mxCell id="GiAE5ClyJ_Z83PEIx40X-7" value="" style="endArrow=classic;html=1;exitX=0.5;exitY=1;exitDx=0;exitDy=0;" edge="1" parent="1">
          <mxGeometry width="50" height="50" relative="1" as="geometry">
            <mxPoint x="309.5" y="330" as="sourcePoint" />
            <mxPoint x="309.5" y="390" as="targetPoint" />
          </mxGeometry>
        </mxCell>
        <mxCell id="GiAE5ClyJ_Z83PEIx40X-8" value="place order" style="shape=ext;rounded=1;html=1;whiteSpace=wrap;strokeWidth=3;" vertex="1" parent="1">
          <mxGeometry x="250" y="520" width="120" height="80" as="geometry" />
        </mxCell>
        <mxCell id="GiAE5ClyJ_Z83PEIx40X-11" value="" style="endArrow=classic;html=1;exitX=0.5;exitY=1;exitDx=0;exitDy=0;" edge="1" parent="1">
          <mxGeometry width="50" height="50" relative="1" as="geometry">
            <mxPoint x="309.5" y="600" as="sourcePoint" />
            <mxPoint x="309.5" y="660" as="targetPoint" />
          </mxGeometry>
        </mxCell>
        <mxCell id="GiAE5ClyJ_Z83PEIx40X-12" value="Logout" style="shape=ext;rounded=1;html=1;whiteSpace=wrap;strokeWidth=3;" vertex="1" parent="1">
          <mxGeometry x="250" y="660" width="120" height="80" as="geometry" />
        </mxCell>
        <mxCell id="GiAE5ClyJ_Z83PEIx40X-13" value="" style="endArrow=classic;html=1;entryX=1;entryY=0.5;entryDx=0;entryDy=0;entryPerimeter=0;exitX=0;exitY=0.5;exitDx=0;exitDy=0;" edge="1" parent="1" source="GiAE5ClyJ_Z83PEIx40X-12" target="GiAE5ClyJ_Z83PEIx40X-2">
          <mxGeometry width="50" height="50" relative="1" as="geometry">
            <mxPoint x="400" y="550" as="sourcePoint" />
            <mxPoint x="450" y="500" as="targetPoint" />
          </mxGeometry>
        </mxCell>
        <mxCell id="GiAE5ClyJ_Z83PEIx40X-14" value="" style="rhombus;whiteSpace=wrap;html=1;" vertex="1" parent="1">
          <mxGeometry x="280" y="390" width="60" height="50" as="geometry" />
        </mxCell>
        <mxCell id="GiAE5ClyJ_Z83PEIx40X-15" value="" style="endArrow=classic;html=1;exitX=0;exitY=0.5;exitDx=0;exitDy=0;" edge="1" parent="1" source="GiAE5ClyJ_Z83PEIx40X-14">
          <mxGeometry width="50" height="50" relative="1" as="geometry">
            <mxPoint x="400" y="450" as="sourcePoint" />
            <mxPoint x="160" y="415" as="targetPoint" />
          </mxGeometry>
        </mxCell>
        <mxCell id="GiAE5ClyJ_Z83PEIx40X-16" value="" style="endArrow=classic;html=1;exitX=0.5;exitY=1;exitDx=0;exitDy=0;" edge="1" parent="1" source="GiAE5ClyJ_Z83PEIx40X-14">
          <mxGeometry width="50" height="50" relative="1" as="geometry">
            <mxPoint x="400" y="450" as="sourcePoint" />
            <mxPoint x="310" y="520" as="targetPoint" />
          </mxGeometry>
        </mxCell>
        <mxCell id="GiAE5ClyJ_Z83PEIx40X-18" value="&lt;div&gt;Product &lt;br&gt;&lt;/div&gt;&lt;div&gt;above threshold&lt;br&gt;&lt;/div&gt;" style="text;html=1;strokeColor=none;fillColor=none;align=center;verticalAlign=middle;whiteSpace=wrap;rounded=0;" vertex="1" parent="1">
          <mxGeometry x="210" y="380" width="40" height="20" as="geometry" />
        </mxCell>
        <mxCell id="GiAE5ClyJ_Z83PEIx40X-19" value="&lt;div&gt;product &lt;br&gt;&lt;/div&gt;&lt;div&gt;below&lt;/div&gt;&lt;div&gt;threshold&lt;br&gt;&lt;/div&gt;" style="text;html=1;strokeColor=none;fillColor=none;align=center;verticalAlign=middle;whiteSpace=wrap;rounded=0;" vertex="1" parent="1">
          <mxGeometry x="320" y="460" width="40" height="20" as="geometry" />
        </mxCell>
        <mxCell id="GiAE5ClyJ_Z83PEIx40X-20" value="" style="html=1;shape=mxgraph.sysml.flowFinal;strokeWidth=2;verticalLabelPosition=bottom;verticalAlignment=top;" vertex="1" parent="1">
          <mxGeometry x="120" y="395" width="40" height="40" as="geometry" />
        </mxCell>
        <mxCell id="GiAE5ClyJ_Z83PEIx40X-21" value="" style="shape=ellipse;html=1;fillColor=#000000;strokeWidth=2;verticalLabelPosition=bottom;verticalAlignment=top;perimeter=ellipsePerimeter;" vertex="1" parent="1">
          <mxGeometry x="460" y="130" width="40" height="40" as="geometry" />
        </mxCell>
        <mxCell id="GiAE5ClyJ_Z83PEIx40X-22" value="" style="html=1;shape=mxgraph.sysml.actFinal;strokeWidth=2;verticalLabelPosition=bottom;verticalAlignment=top;" vertex="1" parent="1">
          <mxGeometry x="470" y="650" width="40" height="40" as="geometry" />
        </mxCell>
        <mxCell id="GiAE5ClyJ_Z83PEIx40X-23" value="view order" style="shape=ext;rounded=1;html=1;whiteSpace=wrap;strokeWidth=3;" vertex="1" parent="1">
          <mxGeometry x="620" y="110" width="120" height="80" as="geometry" />
        </mxCell>
        <mxCell id="GiAE5ClyJ_Z83PEIx40X-24" value="" style="endArrow=classic;html=1;exitX=1;exitY=0.5;exitDx=0;exitDy=0;entryX=0;entryY=0.5;entryDx=0;entryDy=0;" edge="1" parent="1" source="GiAE5ClyJ_Z83PEIx40X-21" target="GiAE5ClyJ_Z83PEIx40X-23">
          <mxGeometry width="50" height="50" relative="1" as="geometry">
            <mxPoint x="770" y="250" as="sourcePoint" />
            <mxPoint x="820" y="200" as="targetPoint" />
          </mxGeometry>
        </mxCell>
        <mxCell id="GiAE5ClyJ_Z83PEIx40X-25" value="" style="endArrow=classic;html=1;exitX=0.5;exitY=1;exitDx=0;exitDy=0;" edge="1" parent="1" source="GiAE5ClyJ_Z83PEIx40X-23">
          <mxGeometry width="50" height="50" relative="1" as="geometry">
            <mxPoint x="770" y="250" as="sourcePoint" />
            <mxPoint x="680" y="250" as="targetPoint" />
          </mxGeometry>
        </mxCell>
        <mxCell id="GiAE5ClyJ_Z83PEIx40X-26" value="check availability" style="shape=ext;rounded=1;html=1;whiteSpace=wrap;strokeWidth=3;" vertex="1" parent="1">
          <mxGeometry x="620" y="250" width="120" height="80" as="geometry" />
        </mxCell>
        <mxCell id="GiAE5ClyJ_Z83PEIx40X-27" value="" style="endArrow=classic;html=1;exitX=0.5;exitY=1;exitDx=0;exitDy=0;" edge="1" parent="1">
          <mxGeometry width="50" height="50" relative="1" as="geometry">
            <mxPoint x="679.5" y="330" as="sourcePoint" />
            <mxPoint x="679.5" y="390" as="targetPoint" />
          </mxGeometry>
        </mxCell>
        <mxCell id="GiAE5ClyJ_Z83PEIx40X-29" value="" style="endArrow=classic;html=1;exitX=0.5;exitY=1;exitDx=0;exitDy=0;" edge="1" parent="1">
          <mxGeometry width="50" height="50" relative="1" as="geometry">
            <mxPoint x="679.5" y="570" as="sourcePoint" />
            <mxPoint x="679.5" y="630" as="targetPoint" />
          </mxGeometry>
        </mxCell>
        <mxCell id="GiAE5ClyJ_Z83PEIx40X-30" value="send stock" style="shape=ext;rounded=1;html=1;whiteSpace=wrap;strokeWidth=3;" vertex="1" parent="1">
          <mxGeometry x="620" y="630" width="120" height="80" as="geometry" />
        </mxCell>
        <mxCell id="GiAE5ClyJ_Z83PEIx40X-31" value="" style="endArrow=classic;html=1;entryX=1;entryY=0.5;entryDx=0;entryDy=0;entryPerimeter=0;exitX=0;exitY=0.5;exitDx=0;exitDy=0;" edge="1" parent="1" source="GiAE5ClyJ_Z83PEIx40X-30" target="GiAE5ClyJ_Z83PEIx40X-22">
          <mxGeometry width="50" height="50" relative="1" as="geometry">
            <mxPoint x="770" y="520" as="sourcePoint" />
            <mxPoint x="820" y="470" as="targetPoint" />
          </mxGeometry>
        </mxCell>
        <mxCell id="GiAE5ClyJ_Z83PEIx40X-32" value="" style="rhombus;whiteSpace=wrap;html=1;" vertex="1" parent="1">
          <mxGeometry x="650" y="390" width="60" height="50" as="geometry" />
        </mxCell>
        <mxCell id="GiAE5ClyJ_Z83PEIx40X-33" value="" style="endArrow=classic;html=1;exitX=0;exitY=0.5;exitDx=0;exitDy=0;" edge="1" parent="1" source="GiAE5ClyJ_Z83PEIx40X-32">
          <mxGeometry width="50" height="50" relative="1" as="geometry">
            <mxPoint x="770" y="450" as="sourcePoint" />
            <mxPoint x="562" y="447" as="targetPoint" />
            <Array as="points">
              <mxPoint x="560" y="415" />
            </Array>
          </mxGeometry>
        </mxCell>
        <mxCell id="GiAE5ClyJ_Z83PEIx40X-34" value="" style="endArrow=classic;html=1;exitX=0.5;exitY=1;exitDx=0;exitDy=0;" edge="1" parent="1" source="GiAE5ClyJ_Z83PEIx40X-32">
          <mxGeometry width="50" height="50" relative="1" as="geometry">
            <mxPoint x="770" y="450" as="sourcePoint" />
            <mxPoint x="680" y="520" as="targetPoint" />
          </mxGeometry>
        </mxCell>
        <mxCell id="GiAE5ClyJ_Z83PEIx40X-35" value="Product not available" style="text;html=1;strokeColor=none;fillColor=none;align=center;verticalAlign=middle;whiteSpace=wrap;rounded=0;" vertex="1" parent="1">
          <mxGeometry x="580" y="380" width="40" height="20" as="geometry" />
        </mxCell>
        <mxCell id="GiAE5ClyJ_Z83PEIx40X-36" value="&lt;div&gt;Product &lt;br&gt;&lt;/div&gt;&lt;div&gt;is &lt;br&gt;&lt;/div&gt;&lt;div&gt;available&lt;br&gt;&lt;/div&gt;" style="text;html=1;strokeColor=none;fillColor=none;align=center;verticalAlign=middle;whiteSpace=wrap;rounded=0;" vertex="1" parent="1">
          <mxGeometry x="690" y="460" width="40" height="20" as="geometry" />
        </mxCell>
        <mxCell id="GiAE5ClyJ_Z83PEIx40X-38" value="" style="rhombus;whiteSpace=wrap;html=1;" vertex="1" parent="1">
          <mxGeometry x="650" y="520" width="60" height="50" as="geometry" />
        </mxCell>
        <mxCell id="GiAE5ClyJ_Z83PEIx40X-39" value="&lt;div&gt;Menufacture&lt;/div&gt;&lt;div&gt; product&lt;/div&gt;" style="shape=ext;rounded=1;html=1;whiteSpace=wrap;strokeWidth=3;" vertex="1" parent="1">
          <mxGeometry x="490" y="450" width="110" height="70" as="geometry" />
        </mxCell>
        <mxCell id="GiAE5ClyJ_Z83PEIx40X-40" value="" style="endArrow=classic;html=1;exitX=0;exitY=0.5;exitDx=0;exitDy=0;entryX=0.627;entryY=1.014;entryDx=0;entryDy=0;entryPerimeter=0;" edge="1" parent="1" target="GiAE5ClyJ_Z83PEIx40X-39">
          <mxGeometry width="50" height="50" relative="1" as="geometry">
            <mxPoint x="650" y="544.5" as="sourcePoint" />
            <mxPoint x="530" y="545" as="targetPoint" />
            <Array as="points">
              <mxPoint x="560" y="545" />
            </Array>
          </mxGeometry>
        </mxCell>
        <mxCell id="GiAE5ClyJ_Z83PEIx40X-42" value="&lt;b&gt;Inventory mangement system&lt;/b&gt;" style="shape=table;html=1;whiteSpace=wrap;startSize=20;container=1;collapsible=0;childLayout=tableLayout;fillColor=none;swimlaneFillColor=#ffffff;strokeColor=none;" vertex="1" parent="1">
          <mxGeometry x="20" y="910" width="680" height="560" as="geometry" />
        </mxCell>
        <mxCell id="GiAE5ClyJ_Z83PEIx40X-43" value="" style="shape=partialRectangle;html=1;whiteSpace=wrap;collapsible=0;dropTarget=0;pointerEvents=0;fillColor=none;top=0;left=0;bottom=0;right=0;points=[[0,0.5],[1,0.5]];portConstraint=eastwest;strokeColor=none;" vertex="1" parent="GiAE5ClyJ_Z83PEIx40X-42">
          <mxGeometry y="20" width="680" height="61" as="geometry" />
        </mxCell>
        <mxCell id="GiAE5ClyJ_Z83PEIx40X-44" value="" style="shape=partialRectangle;html=1;whiteSpace=wrap;connectable=0;fillColor=none;top=1;left=1;bottom=1;right=1;overflow=hidden;strokeColor=none;" vertex="1" parent="GiAE5ClyJ_Z83PEIx40X-43">
          <mxGeometry width="76" height="61" as="geometry" />
        </mxCell>
        <mxCell id="GiAE5ClyJ_Z83PEIx40X-45" value="Partition1" style="shape=partialRectangle;html=1;whiteSpace=wrap;connectable=0;fillColor=none;top=1;left=1;bottom=1;right=1;overflow=hidden;" vertex="1" parent="GiAE5ClyJ_Z83PEIx40X-43">
          <mxGeometry x="76" width="303" height="61" as="geometry" />
        </mxCell>
        <mxCell id="GiAE5ClyJ_Z83PEIx40X-46" value="Partition2" style="shape=partialRectangle;html=1;whiteSpace=wrap;connectable=0;fillColor=none;top=1;left=1;bottom=1;right=1;overflow=hidden;" vertex="1" parent="GiAE5ClyJ_Z83PEIx40X-43">
          <mxGeometry x="379" width="301" height="61" as="geometry" />
        </mxCell>
        <mxCell id="GiAE5ClyJ_Z83PEIx40X-47" value="" style="shape=partialRectangle;html=1;whiteSpace=wrap;collapsible=0;dropTarget=0;pointerEvents=0;fillColor=none;top=1;left=1;bottom=1;right=1;points=[[0,0.5],[1,0.5]];portConstraint=eastwest;" vertex="1" parent="GiAE5ClyJ_Z83PEIx40X-42">
          <mxGeometry y="81" width="680" height="209" as="geometry" />
        </mxCell>
        <mxCell id="GiAE5ClyJ_Z83PEIx40X-48" value="" style="shape=partialRectangle;html=1;whiteSpace=wrap;connectable=0;fillColor=none;top=1;left=1;bottom=1;right=1;overflow=hidden;horizontal=0;" vertex="1" parent="GiAE5ClyJ_Z83PEIx40X-47">
          <mxGeometry width="76" height="209" as="geometry" />
        </mxCell>
        <mxCell id="GiAE5ClyJ_Z83PEIx40X-49" value="" style="shape=partialRectangle;html=1;whiteSpace=wrap;connectable=0;fillColor=none;top=1;left=1;bottom=1;right=1;overflow=hidden;" vertex="1" parent="GiAE5ClyJ_Z83PEIx40X-47">
          <mxGeometry x="76" width="303" height="209" as="geometry" />
        </mxCell>
        <mxCell id="GiAE5ClyJ_Z83PEIx40X-50" value="" style="shape=partialRectangle;html=1;whiteSpace=wrap;connectable=0;fillColor=none;top=1;left=1;bottom=1;right=1;overflow=hidden;" vertex="1" parent="GiAE5ClyJ_Z83PEIx40X-47">
          <mxGeometry x="379" width="301" height="209" as="geometry" />
        </mxCell>
        <mxCell id="GiAE5ClyJ_Z83PEIx40X-51" value="" style="shape=partialRectangle;html=1;whiteSpace=wrap;collapsible=0;dropTarget=0;pointerEvents=0;fillColor=none;top=1;left=1;bottom=1;right=1;points=[[0,0.5],[1,0.5]];portConstraint=eastwest;" vertex="1" parent="GiAE5ClyJ_Z83PEIx40X-42">
          <mxGeometry y="290" width="680" height="270" as="geometry" />
        </mxCell>
        <mxCell id="GiAE5ClyJ_Z83PEIx40X-52" value="" style="shape=partialRectangle;html=1;whiteSpace=wrap;connectable=0;fillColor=none;top=1;left=1;bottom=1;right=1;overflow=hidden;horizontal=0;" vertex="1" parent="GiAE5ClyJ_Z83PEIx40X-51">
          <mxGeometry width="76" height="270" as="geometry" />
        </mxCell>
        <mxCell id="GiAE5ClyJ_Z83PEIx40X-53" value="" style="shape=partialRectangle;html=1;whiteSpace=wrap;connectable=0;fillColor=none;top=1;left=1;bottom=1;right=1;overflow=hidden;" vertex="1" parent="GiAE5ClyJ_Z83PEIx40X-51">
          <mxGeometry x="76" width="303" height="270" as="geometry" />
        </mxCell>
        <mxCell id="GiAE5ClyJ_Z83PEIx40X-54" value="" style="shape=partialRectangle;html=1;whiteSpace=wrap;connectable=0;fillColor=none;top=1;left=1;bottom=1;right=1;overflow=hidden;" vertex="1" parent="GiAE5ClyJ_Z83PEIx40X-51">
          <mxGeometry x="379" width="301" height="270" as="geometry" />
        </mxCell>
        <mxCell id="GiAE5ClyJ_Z83PEIx40X-74" value="" style="shape=rect;html=1;fillColor=#000000;verticalLabelPosition=bottom;verticalAlignment=top;" vertex="1" parent="1">
          <mxGeometry x="600" y="1600" width="4" height="80" as="geometry" />
        </mxCell>
        <mxCell id="GiAE5ClyJ_Z83PEIx40X-75" value="" style="edgeStyle=elbowEdgeStyle;html=1;elbow=horizontal;endArrow=none;rounded=0;startArrow=open;strokeWidth=3;startSize=12;" edge="1" source="GiAE5ClyJ_Z83PEIx40X-74" parent="1">
          <mxGeometry relative="1" as="geometry">
            <mxPoint x="540" y="1640" as="targetPoint" />
          </mxGeometry>
        </mxCell>
        <mxCell id="GiAE5ClyJ_Z83PEIx40X-76" value="" style="edgeStyle=elbowEdgeStyle;html=1;elbow=vertical;endArrow=open;rounded=0;strokeWidth=3;endSize=12;" edge="1" source="GiAE5ClyJ_Z83PEIx40X-74" parent="1">
          <mxGeometry relative="1" as="geometry">
            <mxPoint x="740" y="1610" as="targetPoint" />
          </mxGeometry>
        </mxCell>
        <mxCell id="GiAE5ClyJ_Z83PEIx40X-77" value="" style="edgeStyle=elbowEdgeStyle;html=1;elbow=vertical;endArrow=open;rounded=0;strokeWidth=3;endSize=12;" edge="1" source="GiAE5ClyJ_Z83PEIx40X-74" parent="1">
          <mxGeometry relative="1" as="geometry">
            <mxPoint x="740" y="1630" as="targetPoint" />
          </mxGeometry>
        </mxCell>
        <mxCell id="GiAE5ClyJ_Z83PEIx40X-78" value="" style="edgeStyle=elbowEdgeStyle;html=1;elbow=vertical;endArrow=open;rounded=0;strokeWidth=3;endSize=12;" edge="1" source="GiAE5ClyJ_Z83PEIx40X-74" parent="1">
          <mxGeometry relative="1" as="geometry">
            <mxPoint x="740" y="1650" as="targetPoint" />
          </mxGeometry>
        </mxCell>
        <mxCell id="GiAE5ClyJ_Z83PEIx40X-79" value="" style="edgeStyle=elbowEdgeStyle;html=1;elbow=vertical;endArrow=open;rounded=0;strokeWidth=3;endSize=12;" edge="1" source="GiAE5ClyJ_Z83PEIx40X-74" parent="1">
          <mxGeometry relative="1" as="geometry">
            <mxPoint x="740" y="1670" as="targetPoint" />
          </mxGeometry>
        </mxCell>
      </root>
    </mxGraphModel>
  </diagram>
</mxfile>
